<svg width="48" height="48" viewBox="0 0 48 48" fill="none" xmlns="http://www.w3.org/2000/svg">
<rect x="1.5" y="1.5" width="45" height="45" rx="22.5" fill="white"/>
<path d="M15.1599 34.4145L15.3367 34.5912L15.5135 34.4145L23.9992 25.9287L32.4849 34.4145L32.6617 34.5912L32.8385 34.4145L34.4135 32.8395L34.5903 32.6627L34.4135 32.4859L25.9278 24.0002L34.4135 15.5145L34.5903 15.3377L34.4135 15.1609L32.8385 13.5859L32.6617 13.4091L32.4849 13.5859L23.9992 22.0716L15.5135 13.5859L15.3367 13.4091L15.1599 13.5859L13.5849 15.1609L13.4082 15.3377L13.5849 15.5145L22.0707 24.0002L13.5849 32.4859L13.4082 32.6627L13.5849 32.8395L15.1599 34.4145Z" fill="black" stroke="black" stroke-width="0.5"/>
<rect x="1.5" y="1.5" width="45" height="45" rx="22.5" stroke="black" stroke-width="3"/>
</svg>
