<svg width="24" height="24" viewBox="0 0 24 24" fill="none" xmlns="http://www.w3.org/2000/svg">
<path d="M17.5 20.75C16.5333 20.75 15.7083 20.4083 15.025 19.725C14.3417 19.0417 14 18.2167 14 17.25C14 16.2833 14.3417 15.4583 15.025 14.775C15.7083 14.0917 16.5333 13.75 17.5 13.75C18.4667 13.75 19.2917 14.0917 19.975 14.775C20.6583 15.4583 21 16.2833 21 17.25C21 18.2167 20.6583 19.0417 19.975 19.725C19.2917 20.4083 18.4667 20.75 17.5 20.75ZM17.4941 19.25C18.048 19.25 18.5208 19.0561 18.9125 18.6684C19.3042 18.2806 19.5 17.8098 19.5 17.2559C19.5 16.702 19.3061 16.2292 18.9184 15.8375C18.5306 15.4458 18.0598 15.25 17.5059 15.25C16.952 15.25 16.4792 15.4439 16.0875 15.8316C15.6958 16.2194 15.5 16.6902 15.5 17.2441C15.5 17.798 15.6939 18.2708 16.0816 18.6625C16.4694 19.0542 16.9402 19.25 17.4941 19.25ZM3 18V16.5H12V18H3ZM6.5 10.25C5.53333 10.25 4.70833 9.90833 4.025 9.225C3.34167 8.54167 3 7.71667 3 6.75C3 5.78333 3.34167 4.95833 4.025 4.275C4.70833 3.59167 5.53333 3.25 6.5 3.25C7.46667 3.25 8.29167 3.59167 8.975 4.275C9.65833 4.95833 10 5.78333 10 6.75C10 7.71667 9.65833 8.54167 8.975 9.225C8.29167 9.90833 7.46667 10.25 6.5 10.25ZM6.49413 8.75C7.04804 8.75 7.52083 8.55612 7.9125 8.16837C8.30417 7.78064 8.5 7.30981 8.5 6.75587C8.5 6.20196 8.30612 5.72917 7.91837 5.3375C7.53064 4.94583 7.05981 4.75 6.50587 4.75C5.95196 4.75 5.47917 4.94388 5.0875 5.33163C4.69583 5.71936 4.5 6.19019 4.5 6.74413C4.5 7.29804 4.69387 7.77083 5.08162 8.1625C5.46936 8.55417 5.94019 8.75 6.49413 8.75ZM12 7.5V6H21V7.5H12Z" fill="black" stroke="black" stroke-width="0.5"/>
</svg>
